<svg enable-background="new 0 0 153.9 30.1" viewBox="0 0 153.9 30.1" xmlns="http://www.w3.org/2000/svg"><path d="m14.5 3.6h125.7c6.6 0 11.9 5.3 11.9 11.9 0 6.6-5.3 11.9-11.9 11.9h-125.7c-6.6 0-11.9-5.3-11.9-11.9 0-6.6 5.3-11.9 11.9-11.9z" fill="#fff" stroke="#ebebeb" stroke-miterlimit="10" stroke-width=".5"/><path d="m13.8 19v-7h5.2v1.6h-3.4v1.1h3.2v1.6h-3.2v2.7z" fill="#4e4e4e"/><path d="m19.9 19v-5.1h1.6v.6c.4-.5 1-.7 1.6-.8v1.6c-.1 0-.3-.1-.4-.1-.4 0-.9.2-1.2.5v3.3z" fill="#4e4e4e"/><path d="m23.5 16.4c0-1.5 1.3-2.6 2.7-2.6s2.6 1.3 2.6 2.7v.5h-3.6c.2.5.7.9 1.3.8.4 0 .9-.2 1.2-.4l.7 1.1c-.6.5-1.4.7-2.1.7-1.4.1-2.7-1-2.8-2.4 0-.2 0-.3 0-.4zm2.7-1.3c-.5 0-.9.3-1 .8h2.1c-.1-.4-.3-.8-1.1-.8z" fill="#4e4e4e"/><path d="m29.3 16.4c0-1.4 1.1-2.6 2.6-2.7h.2c1.4 0 2.6 1.1 2.6 2.6v.3.4h-3.6c.2.5.7.9 1.3.8.4 0 .9-.2 1.2-.4l.7 1.1c-.6.5-1.4.7-2.1.7-1.4.1-2.7-1-2.8-2.4-.1-.2-.1-.3-.1-.4zm2.7-1.3c-.5 0-.9.3-1 .8h2c-.1-.5-.5-.9-1-.8z" fill="#4e4e4e"/><path d="m42.6 19-1.3-4.1-1.3 4.1h-.8l-1.6-5.1h.8l1.2 4 1.3-4h.7l1.3 4 1.2-4h.8l-1.5 5.1z" fill="#4e4e4e"/><path d="m45.8 12.6c0-.3.2-.5.5-.5s.5.2.5.5-.2.5-.5.5c-.2.1-.5-.2-.5-.5 0 .1 0 .1 0 0zm.2 6.4v-5.1h.8v5.1z" fill="#4e4e4e"/><path d="m48.5 17.9v-3.3h-.8v-.7h.8v-1.4h.8v1.4h1v.7h-1v3.1c0 .4.2.6.5.6.2 0 .4-.1.5-.2l.2.6c-.3.2-.6.3-.9.3-.5.1-1.1-.3-1.1-.8-.1-.1-.1-.2 0-.3z" fill="#4e4e4e"/><path d="m54.8 19v-3.4c0-.9-.5-1.1-1.2-1.1-.6 0-1.1.3-1.5.8v3.7h-.8v-7h.8v2.7c.4-.5 1.1-.9 1.8-.9.8-.1 1.5.4 1.6 1.2v.4 3.6z" fill="#4e4e4e"/><g fill="#5f6469"><path d="m103.1 11.7h1l-2 7.4h-1l-1.6-4.9-1.5 4.9h-1l-2-7.4h1l1.6 5.8 1.6-4.8h.8l1.6 4.8z"/><path d="m104 16.5c0-.7.2-1.4.7-1.9 1-1 2.7-1 3.7 0 .5.5.8 1.2.7 1.9 0 .7-.2 1.4-.7 1.9-1 1-2.7 1-3.7 0-.5-.4-.7-1.1-.7-1.9zm.9 0c0 .5.1 1 .5 1.3.6.7 1.6.7 2.3.1 0 0 0 0 .1-.1.6-.8.6-1.9 0-2.6s-1.6-.7-2.3-.1c0 0-.1.1-.1.1-.3.4-.4.9-.5 1.3z"/><path d="m110.8 19.1h-.9v-5.1h.9v.8c.1-.3.3-.5.6-.7s.6-.3.9-.3c.2 0 .5 0 .7.1l-.3.9c-.2-.1-.4-.1-.6-.1-.4 0-.7.2-.9.4-.3.3-.4.6-.4 1z"/><path d="m117.9 19.1h-1.2l-1.6-2.4-.8.8v1.6h-1v-7.4h1v4.6l2.2-2.2h1.2l-2 2z"/><path d="m122.1 17.7c0 .4-.2.9-.6 1.1-.8.6-1.9.6-2.8.1-.4-.3-.7-.6-.8-1l.8-.4c.1.3.3.5.5.7s.5.3.8.2c.3 0 .5-.1.8-.2.2-.1.3-.3.3-.5 0-.3-.2-.6-.8-.7l-.9-.2c-1-.2-1.5-.7-1.5-1.4 0-.4.2-.9.6-1.1.4-.3.9-.4 1.4-.4.4 0 .8.1 1.2.3.3.2.6.5.8.8l-.8.4c-.1-.2-.3-.4-.5-.5s-.5-.2-.7-.2-.5.1-.7.2-.3.3-.3.4c0 .3.3.5.8.6l.8.2c1 .3 1.5.8 1.6 1.6z"/><path d="m125.3 19.2c-.3 0-.7-.1-1-.2s-.5-.4-.7-.6v.7 2.2h-.9v-7.3h.9v.7c.2-.3.4-.5.7-.6.3-.2.7-.2 1-.2.7 0 1.3.3 1.7.8.5.5.7 1.2.7 1.9s-.2 1.4-.7 1.9c-.4.4-1 .7-1.7.7zm-.1-.8c.4 0 .9-.2 1.2-.5.3-.4.5-.8.5-1.3s-.1-.9-.5-1.3c-.6-.6-1.5-.7-2.2-.1 0 0-.1.1-.1.1-.6.8-.6 1.9 0 2.6.2.3.7.5 1.1.5z"/><path d="m130.4 13.9c.6 0 1.2.2 1.7.6.4.4.6 1 .6 1.6v3.1h-.9v-.7c-.3.5-.9.9-1.6.9-.5 0-1-.2-1.4-.5s-.6-.8-.6-1.2c0-.5.2-1 .6-1.2.5-.3 1-.5 1.6-.5.5 0 1 .1 1.4.3v-.2c0-.3-.1-.6-.4-.8-.2-.2-.6-.4-.9-.4-.5 0-1 .2-1.3.7l-.8-.5c.4-.9 1.2-1.3 2-1.2zm-1.3 3.6c0 .2.1.5.3.6.2.2.5.3.7.2.4 0 .8-.2 1.1-.4.3-.3.5-.6.5-1-.4-.3-.8-.4-1.2-.4s-.7.1-1 .3c-.2.2-.4.5-.4.7z"/><path d="m135.9 19.2c-.7 0-1.4-.3-1.9-.8s-.8-1.2-.7-1.9c0-.7.2-1.4.7-1.9s1.2-.8 1.9-.8c.5 0 1 .1 1.4.4s.7.6.9 1.1l-.9.4c-.2-.6-.8-1-1.4-.9-.4 0-.8.2-1.1.5-.6.8-.6 1.8 0 2.6.3.3.7.5 1.1.5.6 0 1.2-.3 1.5-1l.9.4c-.2.4-.5.8-.9 1.1-.6.2-1 .4-1.5.3z"/><path d="m141 19.2c-.7 0-1.4-.3-1.8-.8-.5-.5-.7-1.2-.7-1.9s.2-1.4.7-1.9c1-1 2.6-1 3.6 0 .5.6.7 1.3.7 2v.1h-4c0 .5.2.9.5 1.2.6.6 1.6.6 2.3 0 .1-.1.2-.3.3-.4l.9.4c-.2.4-.5.8-.9 1-.7.2-1.1.4-1.6.3zm-1.5-3.3h2.9c0-.3-.2-.6-.4-.9-.3-.2-.6-.4-1-.4-.3 0-.7.1-.9.3-.3.4-.5.7-.6 1z"/></g><path d="m63.3 15.8v-1.1h3.8c0 .2.1.5.1.7.1 2-1.5 3.8-3.6 3.9-.1 0-.2 0-.4 0-2.3.1-4.3-1.7-4.4-4s1.7-4.3 4-4.4h.4c1.1 0 2.1.4 2.9 1.1l-.8.8c-.6-.5-1.3-.8-2.1-.8-1.7 0-3 1.4-3 3s1.4 3 3 3c.8 0 1.6-.3 2.1-.8.4-.4.6-.9.6-1.4z" fill="#547dbf"/><path d="m73.1 16.5c0 1.5-1.2 2.7-2.7 2.7s-2.7-1.2-2.7-2.7 1.2-2.7 2.7-2.7c1.4 0 2.6 1.2 2.7 2.7zm-1.2 0c-.1-.8-.8-1.5-1.6-1.4s-1.5.8-1.4 1.6.7 1.4 1.5 1.4c.8.1 1.5-.6 1.5-1.6 0 .1 0 .1 0 0z" fill="#ea4435"/><path d="m79 16.5c0 1.5-1.2 2.7-2.7 2.7s-2.7-1.2-2.7-2.7 1.2-2.7 2.7-2.7c1.5 0 2.7 1.2 2.7 2.7zm-1.2 0c-.1-.8-.8-1.5-1.6-1.4s-1.5.8-1.4 1.6.7 1.4 1.5 1.4c.9 0 1.5-.7 1.5-1.6 0 .1 0 .1 0 0z" fill="#f9bc15"/><path d="m84.6 14v4.9c0 2-1.2 2.8-2.6 2.8-1 0-2-.6-2.4-1.6l1-.4c.2.6.7 1 1.4 1 .9 0 1.4-.5 1.4-1.6v-.4c-.4.4-.9.6-1.4.6-1.5 0-2.7-1.2-2.7-2.7s1.2-2.7 2.7-2.7c.5 0 1.1.2 1.4.6v-.5zm-1 2.5c.1-.8-.5-1.6-1.4-1.6 0 0 0 0-.1 0-.9 0-1.5.8-1.5 1.6 0 .8.6 1.6 1.5 1.6.9 0 1.6-.7 1.5-1.6 0 .1 0 .1 0 0z" fill="#547dbf"/><path d="m86.7 11.2v7.9h-1.2v-7.9z" fill="#33a852"/><path d="m91.2 17.4.9.6c-.5.8-1.3 1.2-2.2 1.2-1.5 0-2.7-1.2-2.7-2.6v-.1c-.1-1.4 1-2.6 2.4-2.7h.1c1.1 0 2 .7 2.3 1.7l.1.3-3.6 1.5c.2.5.7.8 1.3.8.6.1 1.2-.2 1.4-.7zm-2.8-1 2.4-1c-.2-.4-.6-.6-1-.6-.8.1-1.4.8-1.4 1.6 0 0 0 .1 0 0z" fill="#ea4435"/></svg>