<svg enable-background="new 0 0 106.4 30.1" viewBox="0 0 106.4 30.1" xmlns="http://www.w3.org/2000/svg"><path d="m15.2 3.6h75.8c6.6 0 11.9 5.3 11.9 11.9s-5.3 11.9-11.9 11.9h-75.8c-6.6 0-11.9-5.3-11.9-11.9.1-6.6 5.4-11.9 11.9-11.9z" fill="#fff" stroke="#ebebeb" stroke-miterlimit="10" stroke-width=".5"/><path d="m54.4 14.1h1.3v.9h-1.3v2.2c0 .3 0 .5.3.6.4.2 1 .1 1.1 0v.9c-.2.1-1.4.4-2-.3-.3-.3-.4-.5-.4-1v-2.6h-1v-.9h1v-1.2h1.1zm-3.9 4.7h1.1v-4.7h-1.1zm0-5.5h1.1v-1h-1.1zm-16.9 5.5v-.7c-.4.5-1 .8-1.7.8-1.3 0-2.3-1-2.3-2.5s1-2.5 2.3-2.5c.7 0 1.3.3 1.7.8v-2.6h1.1v6.6h-1.1zm0-2.3c0-.9-.6-1.5-1.5-1.5s-1.5.6-1.5 1.5.6 1.5 1.5 1.5c1 0 1.5-.6 1.5-1.5zm32-4h1.1v6.6h-1.1v-.7c-.4.5-1 .8-1.7.8-1.3 0-2.3-1-2.3-2.5s1-2.5 2.3-2.5c.7 0 1.3.3 1.7.8zm.1 4.3c0-.9-.6-1.5-1.5-1.5s-1.5.6-1.5 1.5.6 1.5 1.5 1.5 1.5-.6 1.5-1.5zm-23.5-.2c0-1.1.4-1.6 1.2-1.6.7 0 1.1.4 1.1 1.1v2.7h1.1v-2.8c0-1.2-.6-1.9-1.8-1.9-.7 0-1.2.3-1.6.8v-.7h-1.1v4.7h1.1zm32.8-2.2v4.3c0 1.5-1 2.4-2.6 2.4-.9 0-1.8-.4-2.5-.9l.6-.8c.5.4 1.1.7 1.8.7.9 0 1.6-.5 1.6-1.3v-.4c-.4.4-1 .7-1.7.7-1.4 0-2.4-1-2.4-2.5 0-1.4 1-2.5 2.4-2.5.7 0 1.3.3 1.7.8v-.6zm-1 2.4c0-.9-.5-1.5-1.4-1.5s-1.5.6-1.5 1.5.6 1.5 1.5 1.5c.8-.1 1.4-.6 1.4-1.5zm12.1-.8v3.1h-1.1v-.6c-.4.4-.9.8-1.6.8-1 0-1.7-.6-1.7-1.5 0-.8.4-1.3 1.6-1.4.4-.1 1.3-.2 1.4-.2.2 0 .3-.1.3-.2 0-.4-.4-.7-1.1-.7-.5 0-1 .3-1.2.7l-.7-.5c.4-.7 1.1-1.1 2.1-1.1 1.2-.1 2 .4 2 1.6zm-1 1-1.4.2c-.4.1-.7.3-.7.6 0 .4.4.6.9.6.8 0 1.3-.5 1.3-1.1zm2.1 2.1h1.1v-6.6h-1.1zm-19.2 0h1v-4.7h-1zm0-5.6h1v-1h-1zm-19.8-.6h-1.1v1.2h-1v.9h1v2.6c0 .4.1.7.4 1 .6.6 1.9.4 2 .3v-.9c-.1 0-.7.2-1.1 0-.3-.2-.3-.4-.3-.6v-2.2h1.3v-.9h-1.3zm-7.8 3.9h-3.8c0 .8.7 1.3 1.5 1.3.6 0 1.1-.3 1.3-.5l.8.4c-.5.6-1.2 1-2.2 1-1.5 0-2.6-.9-2.6-2.5 0-1.4 1.1-2.5 2.6-2.5 2.6.1 2.4 2.6 2.4 2.8zm-1.1-.8c-.1-.8-.7-1.1-1.3-1.1-.7 0-1.3.4-1.4 1.1zm-11.7 2.8h1.1v-4.7h-1.1zm0-5.5h1.1v-1h-1.1zm52.4-.1h-1.1v1.2h-1v.9h1v2.6c0 .4.1.7.4 1 .6.6 1.9.4 2 .3v-.9c-.1 0-.7.2-1.1 0-.2-.3-.2-.5-.2-.7v-2.2h1.3v-.9h-1.3zm-4 5.9h1.1v-4.7h-1.1zm0-5.6h1.1v-1h-1.1zm-15.8.6-1.4 2.9-1.4-2.8h-1.2l2.1 4.1-1.1 2.2h1.1l3-6.2z"/><path d="m17.8 12.2v6.9h7.3v-6.9zm3.2 6.3h-2.6v-3.1c0-.7.6-1.2 1.3-1.2s1.3.5 1.3 1.2zm-1.2-4.5c-.7 0-1.3-.5-1.3-1.2h2.6c-.1.5-.6 1.2-1.3 1.2zm1.8 4.5v-5.8c1.7 0 3.1 1.2 3.2 2.9 0 1.6-1.3 2.9-3 3-.2-.1-.2-.1-.2-.1z" fill="#006271"/></svg>