<svg enable-background="new 0 0 106.4 30.1" viewBox="0 0 106.4 30.1" xmlns="http://www.w3.org/2000/svg"><path d="m15.2 3.6h65.8c6.6 0 11.9 5.3 11.9 11.9s-5.3 11.9-11.9 11.9h-65.8c-6.6 0-11.9-5.3-11.9-11.9.1-6.6 5.4-11.9 11.9-11.9z" fill="#fff" stroke="#ebebeb" stroke-miterlimit="10" stroke-width=".5"/><g fill="#4e4e4e"><path d="m20.7 19.3-3-3.6-.8.9v2.7h-1v-8h1v4.1l3.5-4.1h1.2l-3.3 3.8 3.6 4.2z"/><path d="m22.3 16.4c0-1.7 1.2-3 2.9-3 1.8 0 2.8 1.4 2.8 3.1v.2h-4.7c.1 1.1.8 2 2.1 2 .7 0 1.3-.3 1.8-.7l.4.6c-.6.6-1.4.9-2.3.9-1.8 0-3-1.3-3-3.1zm2.8-2.3c-1.2 0-1.8 1-1.9 1.9h3.8c0-.8-.6-1.9-1.9-1.9z"/><path d="m29.2 20.8c.1.1.3.1.5.1.4 0 .7-.1.9-.6l.4-.9-2.4-5.9h1l1.9 4.7 1.9-4.7h1l-2.9 7c-.3.8-.9 1.2-1.7 1.2-.2 0-.5 0-.6-.1z"/><path d="m38.4 19.3v-8h5.2v.9h-4.2v2.6h4.2v.9h-4.2v3.6z"/><path d="m48.6 19.3v-.7c-.5.5-1.1.8-1.9.8-1 0-2-.7-2-1.9 0-1.3 1-1.9 2-1.9.8 0 1.5.3 1.9.8v-1c0-.8-.6-1.2-1.5-1.2-.7 0-1.3.2-1.8.8l-.4-.6c.6-.6 1.4-1 2.3-1 1.2 0 2.2.6 2.2 2v4zm0-1.2v-1.1c-.3-.5-1-.7-1.6-.7-.9 0-1.4.5-1.4 1.3 0 .7.6 1.3 1.4 1.3.6-.1 1.2-.3 1.6-.8z"/><path d="m51 16.4c0-1.7 1.2-3 2.9-3 1.1 0 1.7.4 2.1 1l-.6.5c-.4-.5-.9-.7-1.5-.7-1.2 0-2 .9-2 2.2s.8 2.2 2 2.2c.6 0 1.1-.2 1.5-.8l.6.6c-.4.6-1.1 1-2.1 1-1.8.1-2.9-1.3-2.9-3z"/><path d="m57.4 18.1v-3.8h-1v-.8h1v-1.6h.9v1.6h1.2v.8h-1.2v3.6c0 .4.2.7.6.7.3 0 .5-.1.6-.3l.3.7c-.2.2-.6.4-1.1.4-.8.1-1.3-.4-1.3-1.3z"/><path d="m60.3 18.6.5-.6c.4.4 1.1.8 1.9.8.9 0 1.4-.4 1.4-1 0-1.4-3.6-.5-3.6-2.7 0-.9.8-1.7 2.1-1.7 1 0 1.7.4 2.1.8l-.4.6c-.3-.4-1-.7-1.7-.7-.8 0-1.3.4-1.3.9 0 1.3 3.6.4 3.6 2.7 0 1-.8 1.8-2.3 1.8-.9 0-1.7-.3-2.3-.9z"/><path d="m75.7 19.3-5.2-5.2.4-.4 4.8 4.8 4.8-4.8.4.4z"/></g></svg>